g Combined Mesh
v 11.58884 3.968746 2.450386E-05
v 11.58884 3.308346 2.450058E-05
v 11.58884 3.968746 0.4572246
v 11.58884 3.308346 0.4572246
v 12.80804 3.308346 2.449921E-05
v 12.80804 3.968746 2.450249E-05
v 12.80804 3.308346 0.4572246
v 12.80804 3.968746 0.4572246
v 8.323025E-05 -4.39228E-06 1.524025
v 15.24644 -4.336471E-06 1.524025
v 8.324721E-05 3.054346 1.524025
v 15.24644 3.054346 1.524025
v 8.329305E-05 3.054346 0.4572246
v 8.324721E-05 3.054346 1.524025
v 15.24644 3.054346 0.4572246
v 15.24644 3.054346 1.524025
v 8.331777E-05 3.968746 2.451687E-05
v 8.329574E-05 -4.398637E-06 2.449717E-05
v 8.329812E-05 3.968746 0.4572246
v 8.329305E-05 3.054346 0.4572246
v 8.323025E-05 -4.39228E-06 1.524025
v 8.324721E-05 3.054346 1.524025
v 0.6223834 3.308346 2.45129E-05
v 0.6223834 3.308346 0.4572246
v 1.841584 3.308346 2.451153E-05
v 1.841584 3.308346 0.4572246
v 8.329574E-05 -4.398637E-06 2.449717E-05
v 14.02724 3.308346 2.449784E-05
v 15.24644 -4.342828E-06 2.448004E-05
v 15.24644 3.968746 2.449975E-05
v 14.02724 3.968746 2.450112E-05
v 0.6223834 3.308346 2.45129E-05
v 8.331777E-05 3.968746 2.451687E-05
v 12.80804 3.308346 2.449921E-05
v 11.58884 3.308346 2.450058E-05
v 12.80804 3.968746 2.450249E-05
v 11.58884 3.968746 2.450386E-05
v 10.36964 3.308346 2.450195E-05
v 9.150435 3.308346 2.450332E-05
v 10.36964 3.968746 2.450523E-05
v 9.150435 3.968746 2.450659E-05
v 7.931235 3.308346 2.450469E-05
v 6.712035 3.308346 2.450606E-05
v 7.931235 3.968746 2.450796E-05
v 6.712035 3.968746 2.450933E-05
v 5.499184 3.308346 2.450742E-05
v 4.279984 3.308346 2.450879E-05
v 5.499184 3.968746 2.45107E-05
v 4.279984 3.968746 2.451207E-05
v 3.060784 3.308346 2.451016E-05
v 1.841584 3.308346 2.451153E-05
v 3.060784 3.968746 2.451344E-05
v 1.841584 3.968746 2.451481E-05
v 0.6223834 3.968746 2.451618E-05
v 3.060784 3.308346 2.451016E-05
v 3.060784 3.308346 0.4572246
v 4.279984 3.308346 2.450879E-05
v 4.279984 3.308346 0.4572246
v 12.80804 3.308346 2.449921E-05
v 12.80804 3.308346 0.4572246
v 14.02724 3.308346 2.449784E-05
v 14.02724 3.308346 0.4572246
v 8.331777E-05 3.968746 2.451687E-05
v 8.329812E-05 3.968746 0.4572246
v 0.6223834 3.968746 2.451618E-05
v 0.6223834 3.968746 0.4572246
v 10.36964 3.308346 2.450195E-05
v 10.36964 3.968746 2.450523E-05
v 10.36964 3.308346 0.4572246
v 10.36964 3.968746 0.4572246
v 15.24644 -4.342828E-06 2.448004E-05
v 15.24644 3.968746 2.449975E-05
v 15.24644 -4.336471E-06 1.524025
v 15.24644 3.054346 0.4572246
v 15.24644 3.054346 1.524025
v 15.24644 3.968746 0.4572246
v 10.36964 3.308346 2.450195E-05
v 10.36964 3.308346 0.4572246
v 11.58884 3.308346 2.450058E-05
v 11.58884 3.308346 0.4572246
v 7.931235 3.308346 2.450469E-05
v 7.931235 3.308346 0.4572246
v 9.150435 3.308346 2.450332E-05
v 9.150435 3.308346 0.4572246
v 5.499184 3.308346 2.450742E-05
v 5.499184 3.308346 0.4572246
v 6.712035 3.308346 2.450606E-05
v 6.712035 3.308346 0.4572246
v 14.02724 3.968746 2.450112E-05
v 14.02724 3.968746 0.4572246
v 15.24644 3.968746 2.449975E-05
v 15.24644 3.968746 0.4572246
v 4.279984 3.968746 2.451207E-05
v 4.279984 3.308346 2.450879E-05
v 4.279984 3.968746 0.4572246
v 4.279984 3.308346 0.4572246
v 11.58884 3.968746 2.450386E-05
v 11.58884 3.968746 0.4572246
v 12.80804 3.968746 2.450249E-05
v 12.80804 3.968746 0.4572246
v 9.150435 3.968746 2.450659E-05
v 9.150435 3.308346 2.450332E-05
v 9.150435 3.968746 0.4572246
v 9.150435 3.308346 0.4572246
v 9.150435 3.968746 2.450659E-05
v 9.150435 3.968746 0.4572246
v 10.36964 3.968746 2.450523E-05
v 10.36964 3.968746 0.4572246
v 7.931235 3.308346 2.450469E-05
v 7.931235 3.968746 2.450796E-05
v 7.931235 3.308346 0.4572246
v 7.931235 3.968746 0.4572246
v 14.02724 3.968746 2.450112E-05
v 14.02724 3.308346 2.449784E-05
v 14.02724 3.968746 0.4572246
v 14.02724 3.308346 0.4572246
v 6.712035 3.968746 2.450933E-05
v 6.712035 3.308346 2.450606E-05
v 6.712035 3.968746 0.4572246
v 6.712035 3.308346 0.4572246
v 0.6223834 3.308346 2.45129E-05
v 0.6223834 3.968746 2.451618E-05
v 0.6223834 3.308346 0.4572246
v 0.6223834 3.968746 0.4572246
v 8.323025E-05 -4.39228E-06 1.524025
v 8.329574E-05 -4.398637E-06 2.449717E-05
v 15.24644 -4.336471E-06 1.524025
v 15.24644 -4.342828E-06 2.448004E-05
v 5.499184 3.308346 2.450742E-05
v 5.499184 3.968746 2.45107E-05
v 5.499184 3.308346 0.4572246
v 5.499184 3.968746 0.4572246
v 1.841584 3.308346 0.4572246
v 3.060784 3.308346 0.4572246
v 1.841584 3.968746 0.4572246
v 3.060784 3.968746 0.4572246
v 14.02724 3.308346 0.4572246
v 0.6223834 3.308346 0.4572246
v 15.24644 3.054346 0.4572246
v 15.24644 3.968746 0.4572246
v 4.279984 3.308346 0.4572246
v 5.499184 3.308346 0.4572246
v 4.279984 3.968746 0.4572246
v 5.499184 3.968746 0.4572246
v 6.712035 3.308346 0.4572246
v 7.931235 3.308346 0.4572246
v 6.712035 3.968746 0.4572246
v 7.931235 3.968746 0.4572246
v 9.150435 3.308346 0.4572246
v 10.36964 3.308346 0.4572246
v 9.150435 3.968746 0.4572246
v 10.36964 3.968746 0.4572246
v 11.58884 3.308346 0.4572246
v 12.80804 3.308346 0.4572246
v 11.58884 3.968746 0.4572246
v 12.80804 3.968746 0.4572246
v 14.02724 3.968746 0.4572246
v 8.329305E-05 3.054346 0.4572246
v 8.329812E-05 3.968746 0.4572246
v 0.6223834 3.968746 0.4572246
v 1.841584 3.968746 2.451481E-05
v 1.841584 3.968746 0.4572246
v 3.060784 3.968746 2.451344E-05
v 3.060784 3.968746 0.4572246
v 3.060784 3.308346 2.451016E-05
v 3.060784 3.968746 2.451344E-05
v 3.060784 3.308346 0.4572246
v 3.060784 3.968746 0.4572246
v 6.712035 3.968746 2.450933E-05
v 6.712035 3.968746 0.4572246
v 7.931235 3.968746 2.450796E-05
v 7.931235 3.968746 0.4572246
v 1.841584 3.968746 2.451481E-05
v 1.841584 3.308346 2.451153E-05
v 1.841584 3.968746 0.4572246
v 1.841584 3.308346 0.4572246
v 4.279984 3.968746 2.451207E-05
v 4.279984 3.968746 0.4572246
v 5.499184 3.968746 2.45107E-05
v 5.499184 3.968746 0.4572246

vn -1 5.551118E-09 -4.296722E-08
vn -1 5.551118E-09 -4.296722E-08
vn -1 5.551118E-09 -4.296722E-08
vn -1 5.551118E-09 -4.296722E-08
vn 1 -5.551118E-09 4.296722E-08
vn 1 -5.551118E-09 4.296722E-08
vn 1 -5.551118E-09 4.296722E-08
vn 1 -5.551118E-09 4.296722E-08
vn 1.1233E-09 -4.964562E-09 1
vn 1.1233E-09 -4.964562E-09 1
vn 1.1233E-09 -4.964562E-09 1
vn 1.1233E-09 -4.964562E-09 1
vn -3.660513E-09 1 -4.171525E-09
vn -3.660513E-09 1 -4.171525E-09
vn -3.660513E-09 1 -4.171525E-09
vn -3.660513E-09 1 -4.171525E-09
vn -1 5.551118E-09 -4.296722E-08
vn -1 5.551118E-09 -4.296722E-08
vn -1 5.551118E-09 -4.296722E-08
vn -1 5.551118E-09 -4.296722E-08
vn -1 5.551118E-09 -4.296722E-08
vn -1 5.551118E-09 -4.296722E-08
vn -3.660513E-09 1 -4.171525E-09
vn -3.660513E-09 1 -4.171525E-09
vn -3.660513E-09 1 -4.171525E-09
vn -3.660513E-09 1 -4.171525E-09
vn -1.1233E-09 4.964562E-09 -1
vn -1.1233E-09 4.964562E-09 -1
vn -1.1233E-09 4.964562E-09 -1
vn -1.1233E-09 4.964562E-09 -1
vn -1.1233E-09 4.964562E-09 -1
vn -1.1233E-09 4.964562E-09 -1
vn -1.1233E-09 4.964562E-09 -1
vn -1.1233E-09 4.964562E-09 -1
vn -1.1233E-09 4.964562E-09 -1
vn -1.1233E-09 4.964562E-09 -1
vn -1.1233E-09 4.964562E-09 -1
vn -1.1233E-09 4.964562E-09 -1
vn -1.1233E-09 4.964562E-09 -1
vn -1.1233E-09 4.964562E-09 -1
vn -1.1233E-09 4.964562E-09 -1
vn -1.1233E-09 4.964562E-09 -1
vn -1.1233E-09 4.964562E-09 -1
vn -1.1233E-09 4.964562E-09 -1
vn -1.1233E-09 4.964562E-09 -1
vn -1.1233E-09 4.964562E-09 -1
vn -1.1233E-09 4.964562E-09 -1
vn -1.1233E-09 4.964562E-09 -1
vn -1.1233E-09 4.964562E-09 -1
vn -1.1233E-09 4.964562E-09 -1
vn -1.1233E-09 4.964562E-09 -1
vn -1.1233E-09 4.964562E-09 -1
vn -1.1233E-09 4.964562E-09 -1
vn -1.1233E-09 4.964562E-09 -1
vn -3.660513E-09 1 -4.171525E-09
vn -3.660513E-09 1 -4.171525E-09
vn -3.660513E-09 1 -4.171525E-09
vn -3.660513E-09 1 -4.171525E-09
vn -3.660513E-09 1 -4.171525E-09
vn -3.660513E-09 1 -4.171525E-09
vn -3.660513E-09 1 -4.171525E-09
vn -3.660513E-09 1 -4.171525E-09
vn -3.660513E-09 1 -4.171525E-09
vn -3.660513E-09 1 -4.171525E-09
vn -3.660513E-09 1 -4.171525E-09
vn -3.660513E-09 1 -4.171525E-09
vn 1 -5.551118E-09 4.296722E-08
vn 1 -5.551118E-09 4.296722E-08
vn 1 -5.551118E-09 4.296722E-08
vn 1 -5.551118E-09 4.296722E-08
vn 1 -5.551118E-09 4.296722E-08
vn 1 -5.551118E-09 4.296722E-08
vn 1 -5.551118E-09 4.296722E-08
vn 1 -5.551118E-09 4.296722E-08
vn 1 -5.551118E-09 4.296722E-08
vn 1 -5.551118E-09 4.296722E-08
vn -3.660513E-09 1 -4.171525E-09
vn -3.660513E-09 1 -4.171525E-09
vn -3.660513E-09 1 -4.171525E-09
vn -3.660513E-09 1 -4.171525E-09
vn -3.660513E-09 1 -4.171525E-09
vn -3.660513E-09 1 -4.171525E-09
vn -3.660513E-09 1 -4.171525E-09
vn -3.660513E-09 1 -4.171525E-09
vn -3.660513E-09 1 -4.171525E-09
vn -3.660513E-09 1 -4.171525E-09
vn -3.660513E-09 1 -4.171525E-09
vn -3.660513E-09 1 -4.171525E-09
vn -3.660513E-09 1 -4.171525E-09
vn -3.660513E-09 1 -4.171525E-09
vn -3.660513E-09 1 -4.171525E-09
vn -3.660513E-09 1 -4.171525E-09
vn -1 5.551118E-09 -4.296722E-08
vn -1 5.551118E-09 -4.296722E-08
vn -1 5.551118E-09 -4.296722E-08
vn -1 5.551118E-09 -4.296722E-08
vn -3.660513E-09 1 -4.171525E-09
vn -3.660513E-09 1 -4.171525E-09
vn -3.660513E-09 1 -4.171525E-09
vn -3.660513E-09 1 -4.171525E-09
vn -1 5.551118E-09 -4.296722E-08
vn -1 5.551118E-09 -4.296722E-08
vn -1 5.551118E-09 -4.296722E-08
vn -1 5.551118E-09 -4.296722E-08
vn -3.660513E-09 1 -4.171525E-09
vn -3.660513E-09 1 -4.171525E-09
vn -3.660513E-09 1 -4.171525E-09
vn -3.660513E-09 1 -4.171525E-09
vn 1 -5.551118E-09 4.296722E-08
vn 1 -5.551118E-09 4.296722E-08
vn 1 -5.551118E-09 4.296722E-08
vn 1 -5.551118E-09 4.296722E-08
vn -1 5.551118E-09 -4.296722E-08
vn -1 5.551118E-09 -4.296722E-08
vn -1 5.551118E-09 -4.296722E-08
vn -1 5.551118E-09 -4.296722E-08
vn -1 5.551118E-09 -4.296722E-08
vn -1 5.551118E-09 -4.296722E-08
vn -1 5.551118E-09 -4.296722E-08
vn -1 5.551118E-09 -4.296722E-08
vn 1 -5.551118E-09 4.296722E-08
vn 1 -5.551118E-09 4.296722E-08
vn 1 -5.551118E-09 4.296722E-08
vn 1 -5.551118E-09 4.296722E-08
vn 3.660513E-09 -1 4.171525E-09
vn 3.660513E-09 -1 4.171525E-09
vn 3.660513E-09 -1 4.171525E-09
vn 3.660513E-09 -1 4.171525E-09
vn 1 -5.551118E-09 4.296722E-08
vn 1 -5.551118E-09 4.296722E-08
vn 1 -5.551118E-09 4.296722E-08
vn 1 -5.551118E-09 4.296722E-08
vn 1.1233E-09 -4.964562E-09 1
vn 1.1233E-09 -4.964562E-09 1
vn 1.1233E-09 -4.964562E-09 1
vn 1.1233E-09 -4.964562E-09 1
vn 1.1233E-09 -4.964562E-09 1
vn 1.1233E-09 -4.964562E-09 1
vn 1.1233E-09 -4.964562E-09 1
vn 1.1233E-09 -4.964562E-09 1
vn 1.1233E-09 -4.964562E-09 1
vn 1.1233E-09 -4.964562E-09 1
vn 1.1233E-09 -4.964562E-09 1
vn 1.1233E-09 -4.964562E-09 1
vn 1.1233E-09 -4.964562E-09 1
vn 1.1233E-09 -4.964562E-09 1
vn 1.1233E-09 -4.964562E-09 1
vn 1.1233E-09 -4.964562E-09 1
vn 1.1233E-09 -4.964562E-09 1
vn 1.1233E-09 -4.964562E-09 1
vn 1.1233E-09 -4.964562E-09 1
vn 1.1233E-09 -4.964562E-09 1
vn 1.1233E-09 -4.964562E-09 1
vn 1.1233E-09 -4.964562E-09 1
vn 1.1233E-09 -4.964562E-09 1
vn 1.1233E-09 -4.964562E-09 1
vn 1.1233E-09 -4.964562E-09 1
vn 1.1233E-09 -4.964562E-09 1
vn 1.1233E-09 -4.964562E-09 1
vn 1.1233E-09 -4.964562E-09 1
vn -3.660513E-09 1 -4.171525E-09
vn -3.660513E-09 1 -4.171525E-09
vn -3.660513E-09 1 -4.171525E-09
vn -3.660513E-09 1 -4.171525E-09
vn 1 -5.551118E-09 4.296722E-08
vn 1 -5.551118E-09 4.296722E-08
vn 1 -5.551118E-09 4.296722E-08
vn 1 -5.551118E-09 4.296722E-08
vn -3.660513E-09 1 -4.171525E-09
vn -3.660513E-09 1 -4.171525E-09
vn -3.660513E-09 1 -4.171525E-09
vn -3.660513E-09 1 -4.171525E-09
vn -1 5.551118E-09 -4.296722E-08
vn -1 5.551118E-09 -4.296722E-08
vn -1 5.551118E-09 -4.296722E-08
vn -1 5.551118E-09 -4.296722E-08
vn -3.660513E-09 1 -4.171525E-09
vn -3.660513E-09 1 -4.171525E-09
vn -3.660513E-09 1 -4.171525E-09
vn -3.660513E-09 1 -4.171525E-09

vt 0 0.9300596
vt 0 0.7752976
vt -0.2142857 0.9300596
vt -0.2142857 0.7752976
vt 0 0.7752976
vt 0 0.9300596
vt 0.2142857 0.7752976
vt 0.2142857 0.9300596
vt 0 0
vt -7.145833 0
vt 0 0.7157738
vt -7.145833 0.7157738
vt 0 0.1071429
vt 0 0.3571429
vt 7.145833 0.1071429
vt 7.145833 0.3571429
vt 0 0.9300596
vt 0 0
vt -0.2142857 0.9300596
vt -0.2142857 0.7157738
vt -0.7142857 0
vt -0.7142857 0.7157738
vt 0.2916667 0
vt 0.2916667 0.1071429
vt 0.8630952 0
vt 0.8630952 0.1071429
vt 0 0
vt 6.574405 0.7752976
vt 7.145833 0
vt 7.145833 0.9300596
vt 6.574405 0.9300596
vt 0.2916667 0.7752976
vt 0 0.9300596
vt 6.002976 0.7752976
vt 5.431548 0.7752976
vt 6.002976 0.9300596
vt 5.431548 0.9300596
vt 4.860119 0.7752976
vt 4.288691 0.7752976
vt 4.860119 0.9300596
vt 4.288691 0.9300596
vt 3.717262 0.7752976
vt 3.145833 0.7752976
vt 3.717262 0.9300596
vt 3.145833 0.9300596
vt 2.577381 0.7752976
vt 2.005952 0.7752976
vt 2.577381 0.9300596
vt 2.005952 0.9300596
vt 1.434524 0.7752976
vt 0.8630952 0.7752976
vt 1.434524 0.9300596
vt 0.8630952 0.9300596
vt 0.2916667 0.9300596
vt 1.434524 0
vt 1.434524 0.1071429
vt 2.005952 0
vt 2.005952 0.1071429
vt 6.002976 0
vt 6.002976 0.1071429
vt 6.574405 0
vt 6.574405 0.1071429
vt 0 0
vt 0 0.1071429
vt 0.2916667 0
vt 0.2916667 0.1071429
vt 0 0.7752976
vt 0 0.9300596
vt 0.2142857 0.7752976
vt 0.2142857 0.9300596
vt 0 0
vt 0 0.9300596
vt 0.7142857 0
vt 0.2142857 0.7157738
vt 0.7142857 0.7157738
vt 0.2142857 0.9300596
vt 4.860119 0
vt 4.860119 0.1071429
vt 5.431548 0
vt 5.431548 0.1071429
vt 3.717262 0
vt 3.717262 0.1071429
vt 4.288691 0
vt 4.288691 0.1071429
vt 2.577381 0
vt 2.577381 0.1071429
vt 3.145833 0
vt 3.145833 0.1071429
vt 6.574405 0
vt 6.574405 0.1071429
vt 7.145833 0
vt 7.145833 0.1071429
vt 0 0.9300596
vt 0 0.7752976
vt -0.2142857 0.9300596
vt -0.2142857 0.7752976
vt 5.431548 0
vt 5.431548 0.1071429
vt 6.002976 0
vt 6.002976 0.1071429
vt 0 0.9300596
vt 0 0.7752976
vt -0.2142857 0.9300596
vt -0.2142857 0.7752976
vt 4.288691 0
vt 4.288691 0.1071429
vt 4.860119 0
vt 4.860119 0.1071429
vt 0 0.7752976
vt 0 0.9300596
vt 0.2142857 0.7752976
vt 0.2142857 0.9300596
vt 0 0.9300596
vt 0 0.7752976
vt -0.2142857 0.9300596
vt -0.2142857 0.7752976
vt 0 0.9300596
vt 0 0.7752976
vt -0.2142857 0.9300596
vt -0.2142857 0.7752976
vt 0 0.7752976
vt 0 0.9300596
vt 0.2142857 0.7752976
vt 0.2142857 0.9300596
vt 0 0.3571429
vt 0 0
vt -7.145833 0.3571429
vt -7.145833 0
vt 0 0.7752976
vt 0 0.9300596
vt 0.2142857 0.7752976
vt 0.2142857 0.9300596
vt -0.8630952 0.7752976
vt -1.434524 0.7752976
vt -0.8630952 0.9300596
vt -1.434524 0.9300596
vt -6.574405 0.7752976
vt -0.2916667 0.7752976
vt -7.145833 0.7157738
vt -7.145833 0.9300596
vt -2.005952 0.7752976
vt -2.577381 0.7752976
vt -2.005952 0.9300596
vt -2.577381 0.9300596
vt -3.145833 0.7752976
vt -3.717262 0.7752976
vt -3.145833 0.9300596
vt -3.717262 0.9300596
vt -4.288691 0.7752976
vt -4.860119 0.7752976
vt -4.288691 0.9300596
vt -4.860119 0.9300596
vt -5.431548 0.7752976
vt -6.002976 0.7752976
vt -5.431548 0.9300596
vt -6.002976 0.9300596
vt -6.574405 0.9300596
vt 0 0.7157738
vt 0 0.9300596
vt -0.2916667 0.9300596
vt 0.8630952 0
vt 0.8630952 0.1071429
vt 1.434524 0
vt 1.434524 0.1071429
vt 0 0.7752976
vt 0 0.9300596
vt 0.2142857 0.7752976
vt 0.2142857 0.9300596
vt 3.145833 0
vt 3.145833 0.1071429
vt 3.717262 0
vt 3.717262 0.1071429
vt 0 0.9300596
vt 0 0.7752976
vt -0.2142857 0.9300596
vt -0.2142857 0.7752976
vt 2.005952 0
vt 2.005952 0.1071429
vt 2.577381 0
vt 2.577381 0.1071429



vc 1 1 1 1
vc 1 1 1 1
vc 1 1 1 1
vc 1 1 1 1
vc 1 1 1 1
vc 1 1 1 1
vc 1 1 1 1
vc 1 1 1 1
vc 1 1 1 1
vc 1 1 1 1
vc 1 1 1 1
vc 1 1 1 1
vc 1 1 1 1
vc 1 1 1 1
vc 1 1 1 1
vc 1 1 1 1
vc 1 1 1 1
vc 1 1 1 1
vc 1 1 1 1
vc 1 1 1 1
vc 1 1 1 1
vc 1 1 1 1
vc 1 1 1 1
vc 1 1 1 1
vc 1 1 1 1
vc 1 1 1 1
vc 1 1 1 1
vc 1 1 1 1
vc 1 1 1 1
vc 1 1 1 1
vc 1 1 1 1
vc 1 1 1 1
vc 1 1 1 1
vc 1 1 1 1
vc 1 1 1 1
vc 1 1 1 1
vc 1 1 1 1
vc 1 1 1 1
vc 1 1 1 1
vc 1 1 1 1
vc 1 1 1 1
vc 1 1 1 1
vc 1 1 1 1
vc 1 1 1 1
vc 1 1 1 1
vc 1 1 1 1
vc 1 1 1 1
vc 1 1 1 1
vc 1 1 1 1
vc 1 1 1 1
vc 1 1 1 1
vc 1 1 1 1
vc 1 1 1 1
vc 1 1 1 1
vc 1 1 1 1
vc 1 1 1 1
vc 1 1 1 1
vc 1 1 1 1
vc 1 1 1 1
vc 1 1 1 1
vc 1 1 1 1
vc 1 1 1 1
vc 1 1 1 1
vc 1 1 1 1
vc 1 1 1 1
vc 1 1 1 1
vc 1 1 1 1
vc 1 1 1 1
vc 1 1 1 1
vc 1 1 1 1
vc 1 1 1 1
vc 1 1 1 1
vc 1 1 1 1
vc 1 1 1 1
vc 1 1 1 1
vc 1 1 1 1
vc 1 1 1 1
vc 1 1 1 1
vc 1 1 1 1
vc 1 1 1 1
vc 1 1 1 1
vc 1 1 1 1
vc 1 1 1 1
vc 1 1 1 1
vc 1 1 1 1
vc 1 1 1 1
vc 1 1 1 1
vc 1 1 1 1
vc 1 1 1 1
vc 1 1 1 1
vc 1 1 1 1
vc 1 1 1 1
vc 1 1 1 1
vc 1 1 1 1
vc 1 1 1 1
vc 1 1 1 1
vc 1 1 1 1
vc 1 1 1 1
vc 1 1 1 1
vc 1 1 1 1
vc 1 1 1 1
vc 1 1 1 1
vc 1 1 1 1
vc 1 1 1 1
vc 1 1 1 1
vc 1 1 1 1
vc 1 1 1 1
vc 1 1 1 1
vc 1 1 1 1
vc 1 1 1 1
vc 1 1 1 1
vc 1 1 1 1
vc 1 1 1 1
vc 1 1 1 1
vc 1 1 1 1
vc 1 1 1 1
vc 1 1 1 1
vc 1 1 1 1
vc 1 1 1 1
vc 1 1 1 1
vc 1 1 1 1
vc 1 1 1 1
vc 1 1 1 1
vc 1 1 1 1
vc 1 1 1 1
vc 1 1 1 1
vc 1 1 1 1
vc 1 1 1 1
vc 1 1 1 1
vc 1 1 1 1
vc 1 1 1 1
vc 1 1 1 1
vc 1 1 1 1
vc 1 1 1 1
vc 1 1 1 1
vc 1 1 1 1
vc 1 1 1 1
vc 1 1 1 1
vc 1 1 1 1
vc 1 1 1 1
vc 1 1 1 1
vc 1 1 1 1
vc 1 1 1 1
vc 1 1 1 1
vc 1 1 1 1
vc 1 1 1 1
vc 1 1 1 1
vc 1 1 1 1
vc 1 1 1 1
vc 1 1 1 1
vc 1 1 1 1
vc 1 1 1 1
vc 1 1 1 1
vc 1 1 1 1
vc 1 1 1 1
vc 1 1 1 1
vc 1 1 1 1
vc 1 1 1 1
vc 1 1 1 1
vc 1 1 1 1
vc 1 1 1 1
vc 1 1 1 1
vc 1 1 1 1
vc 1 1 1 1
vc 1 1 1 1
vc 1 1 1 1
vc 1 1 1 1
vc 1 1 1 1
vc 1 1 1 1
vc 1 1 1 1
vc 1 1 1 1
vc 1 1 1 1
vc 1 1 1 1
vc 1 1 1 1
vc 1 1 1 1
vc 1 1 1 1
vc 1 1 1 1
vc 1 1 1 1
vc 1 1 1 1
vc 1 1 1 1
f 1/1/1 2/2/2 3/3/3
f 4/4/4 3/3/3 2/2/2
f 5/5/5 6/6/6 7/7/7
f 8/8/8 7/7/7 6/6/6
f 9/9/9 10/10/10 11/11/11
f 12/12/12 11/11/11 10/10/10
f 13/13/13 14/14/14 15/15/15
f 16/16/16 15/15/15 14/14/14
f 17/17/17 18/18/18 19/19/19
f 20/20/20 19/19/19 18/18/18
f 21/21/21 20/20/20 18/18/18
f 22/22/22 20/20/20 21/21/21
f 23/23/23 24/24/24 25/25/25
f 26/26/26 25/25/25 24/24/24
f 27/27/27 28/28/28 29/29/29
f 30/30/30 29/29/29 28/28/28
f 31/31/31 30/30/30 28/28/28
f 28/28/28 27/27/27 32/32/32
f 33/33/33 32/32/32 27/27/27
f 34/34/34 28/28/28 32/32/32
f 35/35/35 34/34/34 32/32/32
f 34/34/34 35/35/35 36/36/36
f 37/37/37 36/36/36 35/35/35
f 38/38/38 35/35/35 32/32/32
f 39/39/39 38/38/38 32/32/32
f 38/38/38 39/39/39 40/40/40
f 41/41/41 40/40/40 39/39/39
f 42/42/42 39/39/39 32/32/32
f 43/43/43 42/42/42 32/32/32
f 42/42/42 43/43/43 44/44/44
f 45/45/45 44/44/44 43/43/43
f 46/46/46 43/43/43 32/32/32
f 47/47/47 46/46/46 32/32/32
f 46/46/46 47/47/47 48/48/48
f 49/49/49 48/48/48 47/47/47
f 50/50/50 47/47/47 32/32/32
f 51/51/51 50/50/50 32/32/32
f 50/50/50 51/51/51 52/52/52
f 53/53/53 52/52/52 51/51/51
f 54/54/54 32/32/32 33/33/33
f 55/55/55 56/56/56 57/57/57
f 58/58/58 57/57/57 56/56/56
f 59/59/59 60/60/60 61/61/61
f 62/62/62 61/61/61 60/60/60
f 63/63/63 64/64/64 65/65/65
f 66/66/66 65/65/65 64/64/64
f 67/67/67 68/68/68 69/69/69
f 70/70/70 69/69/69 68/68/68
f 71/71/71 72/72/72 73/73/73
f 74/74/74 73/73/73 72/72/72
f 75/75/75 73/73/73 74/74/74
f 74/74/74 72/72/72 76/76/76
f 77/77/77 78/78/78 79/79/79
f 80/80/80 79/79/79 78/78/78
f 81/81/81 82/82/82 83/83/83
f 84/84/84 83/83/83 82/82/82
f 85/85/85 86/86/86 87/87/87
f 88/88/88 87/87/87 86/86/86
f 89/89/89 90/90/90 91/91/91
f 92/92/92 91/91/91 90/90/90
f 93/93/93 94/94/94 95/95/95
f 96/96/96 95/95/95 94/94/94
f 97/97/97 98/98/98 99/99/99
f 100/100/100 99/99/99 98/98/98
f 101/101/101 102/102/102 103/103/103
f 104/104/104 103/103/103 102/102/102
f 105/105/105 106/106/106 107/107/107
f 108/108/108 107/107/107 106/106/106
f 109/109/109 110/110/110 111/111/111
f 112/112/112 111/111/111 110/110/110
f 113/113/113 114/114/114 115/115/115
f 116/116/116 115/115/115 114/114/114
f 117/117/117 118/118/118 119/119/119
f 120/120/120 119/119/119 118/118/118
f 121/121/121 122/122/122 123/123/123
f 124/124/124 123/123/123 122/122/122
f 125/125/125 126/126/126 127/127/127
f 128/128/128 127/127/127 126/126/126
f 129/129/129 130/130/130 131/131/131
f 132/132/132 131/131/131 130/130/130
f 133/133/133 134/134/134 135/135/135
f 136/136/136 135/135/135 134/134/134
f 134/134/134 133/133/133 137/137/137
f 133/133/133 138/138/138 137/137/137
f 138/138/138 139/139/139 137/137/137
f 140/140/140 137/137/137 139/139/139
f 141/141/141 134/134/134 137/137/137
f 142/142/142 141/141/141 137/137/137
f 141/141/141 142/142/142 143/143/143
f 144/144/144 143/143/143 142/142/142
f 145/145/145 142/142/142 137/137/137
f 146/146/146 145/145/145 137/137/137
f 145/145/145 146/146/146 147/147/147
f 148/148/148 147/147/147 146/146/146
f 149/149/149 146/146/146 137/137/137
f 150/150/150 149/149/149 137/137/137
f 149/149/149 150/150/150 151/151/151
f 152/152/152 151/151/151 150/150/150
f 153/153/153 150/150/150 137/137/137
f 154/154/154 153/153/153 137/137/137
f 153/153/153 154/154/154 155/155/155
f 156/156/156 155/155/155 154/154/154
f 157/157/157 137/137/137 140/140/140
f 139/139/139 138/138/138 158/158/158
f 159/159/159 158/158/158 138/138/138
f 160/160/160 159/159/159 138/138/138
f 161/161/161 162/162/162 163/163/163
f 164/164/164 163/163/163 162/162/162
f 165/165/165 166/166/166 167/167/167
f 168/168/168 167/167/167 166/166/166
f 169/169/169 170/170/170 171/171/171
f 172/172/172 171/171/171 170/170/170
f 173/173/173 174/174/174 175/175/175
f 176/176/176 175/175/175 174/174/174
f 177/177/177 178/178/178 179/179/179
f 180/180/180 179/179/179 178/178/178

